<?xml version="1.0" standalone="no"?>
<!DOCTYPE svg PUBLIC "-//W3C//DTD SVG 20010904//EN"
 "http://www.w3.org/TR/2001/REC-SVG-20010904/DTD/svg10.dtd">
<svg version="1.0" xmlns="http://www.w3.org/2000/svg"
 width="1024.000000pt" height="1024.000000pt" viewBox="0 0 1024.000000 1024.000000"
 preserveAspectRatio="xMidYMid meet">

<g transform="translate(0.000000,1024.000000) scale(0.100000,-0.100000)"
fill="#000000" stroke="none">
<path d="M7915 8094 c-178 -24 -340 -86 -470 -179 -86 -62 -832 -816 -885
-894 -200 -298 -235 -695 -89 -1011 l32 -69 -108 -113 c-127 -133 -148 -170
-149 -253 0 -98 44 -164 138 -206 57 -25 130 -22 187 6 19 9 84 66 144 126
l110 108 50 -31 c65 -41 195 -92 292 -115 115 -27 338 -24 457 5 96 24 226 81
303 132 78 53 856 834 914 918 206 297 231 700 65 1030 -56 110 -98 169 -183
256 -176 178 -411 281 -667 290 -61 3 -124 3 -141 0z m245 -446 c88 -21 192
-79 260 -148 115 -115 173 -258 172 -425 0 -106 -11 -153 -59 -255 -33 -72
-51 -92 -418 -457 -257 -255 -403 -393 -442 -416 -152 -92 -315 -108 -480 -45
l-61 23 229 235 c126 129 241 254 255 277 37 61 42 135 14 201 -52 121 -192
175 -311 118 -20 -9 -138 -120 -264 -247 -162 -163 -232 -226 -239 -219 -7 7
-11 61 -11 138 1 118 3 133 33 212 18 47 40 97 50 111 9 15 193 204 408 422
375 379 393 396 468 432 127 61 260 75 396 43z"/>
<path d="M4782 5170 c-335 -47 -546 -295 -608 -711 -24 -167 -15 -428 19 -560
84 -320 255 -513 512 -575 96 -24 296 -24 390 -1 203 51 364 187 461 392 79
167 111 354 101 585 -14 301 -97 518 -259 681 -83 84 -189 145 -301 173 -75
19 -234 27 -315 16z m261 -373 c100 -49 186 -167 221 -304 41 -157 41 -373 1
-528 -50 -191 -170 -303 -336 -313 -108 -6 -173 15 -242 78 -64 58 -110 140
-139 247 -29 108 -32 370 -4 488 41 178 125 299 239 345 74 29 184 23 260 -13z"/>
<path d="M6275 5164 c-173 -38 -316 -147 -389 -295 -39 -79 -66 -185 -66 -261
l0 -48 180 0 180 0 6 28 c18 81 27 104 57 149 100 149 340 136 434 -24 23 -39
27 -59 28 -118 0 -63 -5 -80 -38 -148 -21 -43 -65 -110 -97 -150 -96 -119
-492 -497 -677 -646 l-43 -34 0 -144 0 -143 635 0 635 0 0 165 0 165 -347 0
-348 0 230 232 c234 237 308 328 366 451 135 291 28 623 -244 757 -45 22 -109
47 -142 55 -89 24 -274 28 -360 9z"/>
<path d="M3187 4962 c-71 -108 -234 -358 -363 -554 l-234 -357 0 -186 0 -185
415 0 415 0 0 -170 0 -169 180 -3 180 -3 0 173 0 172 110 0 110 0 0 165 0 165
-110 0 -110 0 0 575 0 575 -232 0 -233 -1 -128 -197z m230 -949 c-2 -2 -108
-2 -236 -1 l-231 3 156 240 c86 132 191 293 233 357 l76 117 3 -356 c1 -196 1
-358 -1 -360z"/>
<path d="M1185 4759 c4 -6 87 -124 184 -262 97 -139 202 -289 233 -333 l57
-82 -259 -363 c-143 -200 -260 -367 -260 -371 0 -5 96 -8 213 -8 l212 1 155
220 c85 122 158 223 163 226 5 3 213 -303 292 -431 9 -15 36 -16 232 -14 l221
3 -254 363 c-152 217 -252 368 -248 375 4 7 42 57 84 112 74 96 400 562 400
571 0 2 -94 4 -210 4 l-210 0 -143 -215 -144 -215 -135 212 -135 213 -227 3
c-165 2 -226 -1 -221 -9z"/>
</g>
</svg>
